<mxfile host="Electron" modified="2024-01-18T17:37:20.374Z" agent="Mozilla/5.0 (Windows NT 10.0; Win64; x64) AppleWebKit/537.36 (KHTML, like Gecko) draw.io/22.1.11 Chrome/114.0.5735.289 Electron/25.9.8 Safari/537.36" etag="KLffd2ytVdLuPbsCh3ka" version="22.1.11" type="device">
  <diagram name="Page-1" id="95un4xSpwnVG-g4x64Bq">
    <mxGraphModel dx="1098" dy="820" grid="1" gridSize="10" guides="1" tooltips="1" connect="1" arrows="1" fold="1" page="1" pageScale="1" pageWidth="827" pageHeight="1169" math="0" shadow="0">
      <root>
        <mxCell id="0" />
        <mxCell id="1" parent="0" />
        <mxCell id="IbB7KQ5nJDt7Z2YSkib0-1" value="" style="rounded=1;whiteSpace=wrap;html=1;fillColor=#cdeb8b;strokeColor=#36393d;" parent="1" vertex="1">
          <mxGeometry x="100" y="40" width="240" height="150" as="geometry" />
        </mxCell>
        <mxCell id="IbB7KQ5nJDt7Z2YSkib0-2" value="" style="endArrow=classic;html=1;rounded=0;entryX=0;entryY=0.5;entryDx=0;entryDy=0;" parent="1" target="IbB7KQ5nJDt7Z2YSkib0-4" edge="1">
          <mxGeometry width="50" height="50" relative="1" as="geometry">
            <mxPoint x="60" y="59.83" as="sourcePoint" />
            <mxPoint x="120" y="59.83" as="targetPoint" />
          </mxGeometry>
        </mxCell>
        <mxCell id="IbB7KQ5nJDt7Z2YSkib0-3" value="C&lt;sub&gt;t-1&lt;/sub&gt;" style="edgeLabel;html=1;align=center;verticalAlign=middle;resizable=0;points=[];labelBackgroundColor=none;" parent="IbB7KQ5nJDt7Z2YSkib0-2" vertex="1" connectable="0">
          <mxGeometry x="-0.8611" y="1" relative="1" as="geometry">
            <mxPoint x="-15" y="1" as="offset" />
          </mxGeometry>
        </mxCell>
        <mxCell id="IbB7KQ5nJDt7Z2YSkib0-6" value="" style="edgeStyle=orthogonalEdgeStyle;rounded=0;orthogonalLoop=1;jettySize=auto;html=1;" parent="1" source="IbB7KQ5nJDt7Z2YSkib0-4" target="IbB7KQ5nJDt7Z2YSkib0-5" edge="1">
          <mxGeometry relative="1" as="geometry" />
        </mxCell>
        <mxCell id="IbB7KQ5nJDt7Z2YSkib0-4" value="&lt;p style=&quot;line-height: 120%;&quot;&gt;x&lt;/p&gt;" style="ellipse;whiteSpace=wrap;html=1;aspect=fixed;verticalAlign=middle;align=center;horizontal=1;fontSize=12;fillColor=#ffcccc;strokeColor=#36393d;" parent="1" vertex="1">
          <mxGeometry x="120" y="50" width="20" height="20" as="geometry" />
        </mxCell>
        <mxCell id="IbB7KQ5nJDt7Z2YSkib0-27" style="edgeStyle=orthogonalEdgeStyle;rounded=0;orthogonalLoop=1;jettySize=auto;html=1;" parent="1" source="IbB7KQ5nJDt7Z2YSkib0-5" edge="1">
          <mxGeometry relative="1" as="geometry">
            <mxPoint x="390" y="60" as="targetPoint" />
          </mxGeometry>
        </mxCell>
        <mxCell id="IbB7KQ5nJDt7Z2YSkib0-29" value="C&lt;sub&gt;t&lt;/sub&gt;" style="edgeLabel;html=1;align=center;verticalAlign=middle;resizable=0;points=[];labelBackgroundColor=none;" parent="IbB7KQ5nJDt7Z2YSkib0-27" vertex="1" connectable="0">
          <mxGeometry x="0.747" relative="1" as="geometry">
            <mxPoint x="30" as="offset" />
          </mxGeometry>
        </mxCell>
        <mxCell id="IbB7KQ5nJDt7Z2YSkib0-5" value="+" style="ellipse;whiteSpace=wrap;html=1;aspect=fixed;align=center;fillColor=#ffcccc;strokeColor=#36393d;" parent="1" vertex="1">
          <mxGeometry x="205" y="50" width="20" height="20" as="geometry" />
        </mxCell>
        <mxCell id="IbB7KQ5nJDt7Z2YSkib0-8" style="edgeStyle=orthogonalEdgeStyle;rounded=0;orthogonalLoop=1;jettySize=auto;html=1;entryX=0.5;entryY=1;entryDx=0;entryDy=0;" parent="1" source="IbB7KQ5nJDt7Z2YSkib0-7" target="IbB7KQ5nJDt7Z2YSkib0-5" edge="1">
          <mxGeometry relative="1" as="geometry" />
        </mxCell>
        <mxCell id="IbB7KQ5nJDt7Z2YSkib0-7" value="&lt;p style=&quot;line-height: 120%;&quot;&gt;x&lt;/p&gt;" style="ellipse;whiteSpace=wrap;html=1;aspect=fixed;verticalAlign=middle;align=center;horizontal=1;fontSize=12;fillColor=#ffcccc;strokeColor=#36393d;" parent="1" vertex="1">
          <mxGeometry x="205" y="90" width="20" height="20" as="geometry" />
        </mxCell>
        <mxCell id="IbB7KQ5nJDt7Z2YSkib0-11" style="edgeStyle=orthogonalEdgeStyle;rounded=0;orthogonalLoop=1;jettySize=auto;html=1;entryX=0.5;entryY=1;entryDx=0;entryDy=0;labelBackgroundColor=none;" parent="1" source="IbB7KQ5nJDt7Z2YSkib0-9" target="IbB7KQ5nJDt7Z2YSkib0-7" edge="1">
          <mxGeometry relative="1" as="geometry" />
        </mxCell>
        <mxCell id="IbB7KQ5nJDt7Z2YSkib0-17" value="C&lt;font size=&quot;1&quot;&gt;&lt;sub&gt;t&lt;/sub&gt;&lt;/font&gt;" style="edgeLabel;html=1;align=center;verticalAlign=middle;resizable=0;points=[];labelBackgroundColor=none;" parent="IbB7KQ5nJDt7Z2YSkib0-11" vertex="1" connectable="0">
          <mxGeometry x="0.5685" relative="1" as="geometry">
            <mxPoint x="-10" as="offset" />
          </mxGeometry>
        </mxCell>
        <mxCell id="IbB7KQ5nJDt7Z2YSkib0-9" value="tanh" style="rounded=1;whiteSpace=wrap;html=1;fillColor=#cce5ff;strokeColor=#36393d;" parent="1" vertex="1">
          <mxGeometry x="200" y="130" width="30" height="20" as="geometry" />
        </mxCell>
        <mxCell id="IbB7KQ5nJDt7Z2YSkib0-16" value="&lt;font size=&quot;1&quot;&gt;i&lt;sub&gt;t&lt;/sub&gt;&lt;/font&gt;" style="edgeStyle=orthogonalEdgeStyle;rounded=0;orthogonalLoop=1;jettySize=auto;html=1;entryX=0;entryY=0.5;entryDx=0;entryDy=0;exitX=0.5;exitY=0;exitDx=0;exitDy=0;labelBackgroundColor=none;" parent="1" source="IbB7KQ5nJDt7Z2YSkib0-12" target="IbB7KQ5nJDt7Z2YSkib0-7" edge="1">
          <mxGeometry x="0.5" y="10" relative="1" as="geometry">
            <Array as="points">
              <mxPoint x="175" y="100" />
            </Array>
            <mxPoint as="offset" />
          </mxGeometry>
        </mxCell>
        <mxCell id="IbB7KQ5nJDt7Z2YSkib0-12" value="σ" style="rounded=1;whiteSpace=wrap;html=1;fillColor=#cce5ff;strokeColor=#36393d;" parent="1" vertex="1">
          <mxGeometry x="160" y="130" width="30" height="20" as="geometry" />
        </mxCell>
        <mxCell id="IbB7KQ5nJDt7Z2YSkib0-14" value="f&lt;sub&gt;t&lt;/sub&gt;" style="edgeStyle=orthogonalEdgeStyle;rounded=0;orthogonalLoop=1;jettySize=auto;html=1;labelBackgroundColor=none;" parent="1" source="IbB7KQ5nJDt7Z2YSkib0-13" target="IbB7KQ5nJDt7Z2YSkib0-4" edge="1">
          <mxGeometry y="10" relative="1" as="geometry">
            <mxPoint as="offset" />
          </mxGeometry>
        </mxCell>
        <mxCell id="IbB7KQ5nJDt7Z2YSkib0-13" value="σ" style="rounded=1;whiteSpace=wrap;html=1;fillColor=#cce5ff;strokeColor=#36393d;" parent="1" vertex="1">
          <mxGeometry x="115" y="130" width="30" height="20" as="geometry" />
        </mxCell>
        <mxCell id="IbB7KQ5nJDt7Z2YSkib0-32" style="edgeStyle=orthogonalEdgeStyle;rounded=0;orthogonalLoop=1;jettySize=auto;html=1;" parent="1" source="IbB7KQ5nJDt7Z2YSkib0-18" target="IbB7KQ5nJDt7Z2YSkib0-30" edge="1">
          <mxGeometry relative="1" as="geometry" />
        </mxCell>
        <mxCell id="IbB7KQ5nJDt7Z2YSkib0-43" value="o&lt;sub&gt;t&lt;/sub&gt;" style="edgeLabel;html=1;align=center;verticalAlign=middle;resizable=0;points=[];labelBackgroundColor=none;" parent="IbB7KQ5nJDt7Z2YSkib0-32" vertex="1" connectable="0">
          <mxGeometry x="0.1867" y="-1" relative="1" as="geometry">
            <mxPoint y="-9" as="offset" />
          </mxGeometry>
        </mxCell>
        <mxCell id="IbB7KQ5nJDt7Z2YSkib0-18" value="σ" style="rounded=1;whiteSpace=wrap;html=1;fillColor=#cce5ff;strokeColor=#36393d;" parent="1" vertex="1">
          <mxGeometry x="240" y="160" width="30" height="20" as="geometry" />
        </mxCell>
        <mxCell id="IbB7KQ5nJDt7Z2YSkib0-19" value="" style="endArrow=classic;html=1;rounded=0;entryX=0;entryY=0.5;entryDx=0;entryDy=0;" parent="1" target="IbB7KQ5nJDt7Z2YSkib0-18" edge="1">
          <mxGeometry width="50" height="50" relative="1" as="geometry">
            <mxPoint x="60" y="170" as="sourcePoint" />
            <mxPoint x="260" y="70" as="targetPoint" />
            <Array as="points" />
          </mxGeometry>
        </mxCell>
        <mxCell id="IbB7KQ5nJDt7Z2YSkib0-36" value="Y&lt;sub&gt;t-1&lt;/sub&gt;" style="edgeLabel;html=1;align=center;verticalAlign=middle;resizable=0;points=[];labelBackgroundColor=none;" parent="IbB7KQ5nJDt7Z2YSkib0-19" vertex="1" connectable="0">
          <mxGeometry x="-0.9296" y="-2" relative="1" as="geometry">
            <mxPoint x="-16" y="-2" as="offset" />
          </mxGeometry>
        </mxCell>
        <mxCell id="IbB7KQ5nJDt7Z2YSkib0-21" value="" style="endArrow=classic;html=1;rounded=0;entryX=0.5;entryY=1;entryDx=0;entryDy=0;" parent="1" target="IbB7KQ5nJDt7Z2YSkib0-13" edge="1">
          <mxGeometry width="50" height="50" relative="1" as="geometry">
            <mxPoint x="130" y="170" as="sourcePoint" />
            <mxPoint x="260" y="70" as="targetPoint" />
          </mxGeometry>
        </mxCell>
        <mxCell id="IbB7KQ5nJDt7Z2YSkib0-22" value="" style="endArrow=classic;html=1;rounded=0;entryX=0.5;entryY=1;entryDx=0;entryDy=0;" parent="1" target="IbB7KQ5nJDt7Z2YSkib0-12" edge="1">
          <mxGeometry width="50" height="50" relative="1" as="geometry">
            <mxPoint x="175" y="170" as="sourcePoint" />
            <mxPoint x="140" y="160" as="targetPoint" />
          </mxGeometry>
        </mxCell>
        <mxCell id="IbB7KQ5nJDt7Z2YSkib0-24" value="" style="endArrow=classic;html=1;rounded=0;entryX=0.5;entryY=1;entryDx=0;entryDy=0;" parent="1" target="IbB7KQ5nJDt7Z2YSkib0-9" edge="1">
          <mxGeometry width="50" height="50" relative="1" as="geometry">
            <mxPoint x="215" y="170" as="sourcePoint" />
            <mxPoint x="185" y="160" as="targetPoint" />
          </mxGeometry>
        </mxCell>
        <mxCell id="IbB7KQ5nJDt7Z2YSkib0-31" style="edgeStyle=orthogonalEdgeStyle;rounded=0;orthogonalLoop=1;jettySize=auto;html=1;entryX=0.5;entryY=0;entryDx=0;entryDy=0;" parent="1" source="IbB7KQ5nJDt7Z2YSkib0-25" target="IbB7KQ5nJDt7Z2YSkib0-30" edge="1">
          <mxGeometry relative="1" as="geometry" />
        </mxCell>
        <mxCell id="IbB7KQ5nJDt7Z2YSkib0-25" value="tanh" style="ellipse;whiteSpace=wrap;html=1;fillColor=#ffcccc;strokeColor=#36393d;" parent="1" vertex="1">
          <mxGeometry x="295" y="90" width="30" height="20" as="geometry" />
        </mxCell>
        <mxCell id="IbB7KQ5nJDt7Z2YSkib0-33" style="edgeStyle=orthogonalEdgeStyle;rounded=0;orthogonalLoop=1;jettySize=auto;html=1;" parent="1" source="IbB7KQ5nJDt7Z2YSkib0-30" edge="1">
          <mxGeometry relative="1" as="geometry">
            <mxPoint x="390" y="170" as="targetPoint" />
          </mxGeometry>
        </mxCell>
        <mxCell id="IbB7KQ5nJDt7Z2YSkib0-34" value="Y&lt;sub&gt;t&lt;/sub&gt;" style="edgeLabel;html=1;align=center;verticalAlign=middle;resizable=0;points=[];labelBackgroundColor=none;" parent="IbB7KQ5nJDt7Z2YSkib0-33" vertex="1" connectable="0">
          <mxGeometry x="0.8936" y="-1" relative="1" as="geometry">
            <mxPoint x="14" y="-1" as="offset" />
          </mxGeometry>
        </mxCell>
        <mxCell id="IbB7KQ5nJDt7Z2YSkib0-30" value="&lt;p style=&quot;line-height: 120%;&quot;&gt;x&lt;/p&gt;" style="ellipse;whiteSpace=wrap;html=1;aspect=fixed;verticalAlign=middle;align=center;horizontal=1;fontSize=12;fillColor=#ffcccc;strokeColor=#36393d;" parent="1" vertex="1">
          <mxGeometry x="300" y="160" width="20" height="20" as="geometry" />
        </mxCell>
        <mxCell id="IbB7KQ5nJDt7Z2YSkib0-38" value="" style="endArrow=classic;html=1;rounded=0;" parent="1" edge="1">
          <mxGeometry width="50" height="50" relative="1" as="geometry">
            <mxPoint x="70" y="200" as="sourcePoint" />
            <mxPoint x="70" y="170" as="targetPoint" />
          </mxGeometry>
        </mxCell>
        <mxCell id="IbB7KQ5nJDt7Z2YSkib0-39" value="X&lt;sub&gt;t&lt;/sub&gt;" style="edgeLabel;html=1;align=center;verticalAlign=middle;resizable=0;points=[];labelBackgroundColor=none;" parent="IbB7KQ5nJDt7Z2YSkib0-38" vertex="1" connectable="0">
          <mxGeometry x="-0.7111" relative="1" as="geometry">
            <mxPoint y="14" as="offset" />
          </mxGeometry>
        </mxCell>
        <mxCell id="IbB7KQ5nJDt7Z2YSkib0-40" value="" style="endArrow=classic;html=1;rounded=0;" parent="1" edge="1">
          <mxGeometry width="50" height="50" relative="1" as="geometry">
            <mxPoint x="360" y="170" as="sourcePoint" />
            <mxPoint x="360" y="30" as="targetPoint" />
          </mxGeometry>
        </mxCell>
        <mxCell id="IbB7KQ5nJDt7Z2YSkib0-41" value="Y&lt;sub&gt;t&lt;/sub&gt;" style="edgeLabel;html=1;align=center;verticalAlign=middle;resizable=0;points=[];labelBackgroundColor=none;" parent="IbB7KQ5nJDt7Z2YSkib0-40" vertex="1" connectable="0">
          <mxGeometry x="0.9333" y="1" relative="1" as="geometry">
            <mxPoint y="-15" as="offset" />
          </mxGeometry>
        </mxCell>
        <mxCell id="IbB7KQ5nJDt7Z2YSkib0-42" value="" style="endArrow=classic;html=1;rounded=0;entryX=0.5;entryY=0;entryDx=0;entryDy=0;" parent="1" target="IbB7KQ5nJDt7Z2YSkib0-25" edge="1">
          <mxGeometry width="50" height="50" relative="1" as="geometry">
            <mxPoint x="310" y="60" as="sourcePoint" />
            <mxPoint x="200" y="80" as="targetPoint" />
          </mxGeometry>
        </mxCell>
      </root>
    </mxGraphModel>
  </diagram>
</mxfile>
